<?xml version="1.0" encoding="UTF-8"?>
<svg xmlns="http://www.w3.org/2000/svg" version="1.1" viewBox="0 0 212 220">
  <defs>
    <style>
      .cls-1 {
        fill: #fff;
      }
    </style>
  </defs>
  <!-- Generator: Adobe Illustrator 28.7.1, SVG Export Plug-In . SVG Version: 1.2.0 Build 142)  -->
  <g>
    <g id="Layer_1">
      <g id="Layer_1-2" data-name="Layer_1">
        <g id="Layer_2">
          <g id="Layer_5">
            <path class="cls-1" d="M35.8,53.6l9.1,7.5v14.3l-9.1,7.5H12.8v9.4H0v-23.9h12.8v4.2h17l2.4-2v-4.9l-2.4-2H0v-10.3h35.8v.2ZM58.3,63.6h40.6v-10h-40.6s0,10,0,10ZM98.9,82.5h-13.9v-14.1h-12.8v14.1h-13.9v10h40.6v-10h0ZM113.4,53.6v10.3h29.7l2.5,2v4.9l-2.5,2h-17v-4.2h-12.8v23.9h12.8v-9.4h23.1l9.1-7.5v-14.3l-9.1-7.5h-35.8s0-.2,0-.2ZM168.6,63.9h41.8v-10.3h-41.8v10.3ZM181.4,77.5h18.9v-8.9h-31.7v23.9h42.3v-10.3h-29.5v-4.6h0ZM0,0v10.6h31l3.7,3v11.8l-3.7,3H12.8v-13H0v23.6h36.8l10.6-8.8V8.8L36.8,0H0ZM66.4,32.7h18.7l-5.5-10.6h-7.8l6-11.6h1.7l14.6,28.3h12.5v-3.6L87.1,0h-16.5l-19.6,35.2v3.6h12.1l3.2-6.1h.1ZM158.5,20.1V7.8l-8.9-7.8h-36.9v10.3h30.6l2.4,2v3.7l-2.4,2h-17.9v-3h-12.8v23.9h12.8v-10.6h11.2l9.6,10.6h13.3v-3.6l-8.6-8.6,7.5-6.6h0ZM181,0h-12.8v38.8h12.8V0ZM196,18.9l15.3-15.3V0h-11.2l-15.3,16v6.1l15.8,16.7h11.4v-3.6l-15.9-16.3s-.1,0-.1,0Z"/>
            <path class="cls-1" d="M118,138.1v-5.9l-3.7-3.6,2.4-2.4v-5.3l-4-4h-18.6v25.7h19.6l4.4-4.4h-.1ZM110.5,120.6l1.8,1.9v2.9l-2,2h-11.9v-6.8h12.1ZM98.5,138.8v-7.7h13l2.2,2.3v3.2l-2.2,2.3h-13ZM70,170.2h13.3v-3.8h-13.3v-7h17.3v-3.8h-21.7v25.7h22.1v-3.9h-17.6v-7.2h-.1ZM126.1,170.2h13.3v-3.8h-13.3v-7h17.3v-3.8h-21.7v25.7h22.1v-3.9h-17.6v-7.2h-.1ZM117.3,206.3v-7.3l-4.8-4.8h-18.1v25.7h4.4v-8.8h8.8l6.2,8.8h4.3v-1.4l-5.4-7.6,4.6-4.6h0ZM98.9,207.4v-9.3h11.5l2.6,2.6v4.2l-2.6,2.6h-11.5Z"/>
          </g>
        </g>
      </g>
    </g>
  </g>
</svg>