<?xml version="1.0" encoding="UTF-8"?>
<svg xmlns="http://www.w3.org/2000/svg" version="1.1" viewBox="0 0 424 439.8">
  <defs>
    <style>
      .cls-1 {
        fill: #fff;
      }
    </style>
  </defs>
  <!-- Generator: Adobe Illustrator 28.7.1, SVG Export Plug-In . SVG Version: 1.2.0 Build 142)  -->
  <g>
    <g id="Layer_1">
      <g id="Layer_1-2" data-name="Layer_1">
        <g id="Layer_2">
          <g id="Layer_5">
            <path class="cls-1" d="M71.6,107.2l18.2,15v28.6l-18.2,15H25.6v18.8H0v-47.8h25.6v8.4h34l4.8-4v-9.8l-4.8-4H0v-20.6h71.6v.4ZM116.6,127.2h81.2v-20h-81.2s0,20,0,20ZM197.8,165h-27.8v-28.2h-25.6v28.2h-27.8v20h81.2v-20h0ZM226.8,107.2v20.6h59.4l5,4v9.8l-5,4h-34v-8.4h-25.6v47.8h25.6v-18.8h46.2l18.2-15v-28.6l-18.2-15h-71.6s0-.4,0-.4ZM337.2,127.8h83.6v-20.6h-83.6v20.6ZM362.8,155h37.8v-17.8h-63.4v47.8h84.6v-20.6h-59v-9.2h0v-.2ZM0,0v21.2h62l7.4,6v23.6l-7.4,6H25.6v-26H0v47.2h73.6l21.2-17.6V17.6L73.6,0H0ZM132.8,65.4h37.4l-11-21.2h-15.6l12-23.2h3.4l29.2,56.6h25v-7.2L174.2,0h-33l-39.2,70.4v7.2h24.2l6.4-12.2h.2ZM317,40.2V15.6l-17.8-15.6h-73.8v20.6h61.2l4.8,4v7.4l-4.8,4h-35.8v-6h-25.6v47.8h25.6v-21.2h22.4l19.2,21.2h26.6v-7.2l-17.2-17.2,15-13.2h.2ZM362,0h-25.6v77.6h25.6V0ZM392,37.8l30.6-30.6V0h-22.4l-30.6,32v12.2l31.6,33.4h22.8v-7.2l-31.8-32.6s-.2,0-.2,0Z"/>
            <path class="cls-1" d="M236,276.2v-11.8l-7.4-7.2,4.8-4.8v-10.6l-8-8h-37.2v51.4h39.2l8.8-8.8h-.2v-.2ZM221,241.2l3.6,3.8v5.8l-4,4h-23.8v-13.6h24.2ZM197,277.6v-15.4h26l4.4,4.6v6.4l-4.4,4.6h-26v-.2ZM140,340.4h26.6v-7.6h-26.6v-14h34.6v-7.6h-43.4v51.4h44.2v-7.8h-35.2v-14.4h-.2ZM252.2,340.4h26.6v-7.6h-26.6v-14h34.6v-7.6h-43.4v51.4h44.2v-7.8h-35.2v-14.4h-.2ZM234.6,412.6v-14.6l-9.6-9.6h-36.2v51.4h8.8v-17.6h17.6l12.4,17.6h8.6v-2.8l-10.8-15.2,9.2-9.2h0ZM197.8,414.8v-18.6h23l5.2,5.2v8.4l-5.2,5.2h-23v-.2Z"/>
          </g>
        </g>
      </g>
    </g>
  </g>
</svg>